<svg width="28" height="27" viewBox="0 0 28 27" fill="none" xmlns="http://www.w3.org/2000/svg">
    <path d="M14 0C6.125 0 0 6.09677 0 13.9355C0 23.0806 8.3125 27 9.625 27C10.5 27 10.5 26.5645 10.5 26.129V23.9516C7.4375 24.8226 6.125 23.0806 5.6875 21.7742C5.6875 21.7742 5.6875 21.3387 4.8125 20.4677C4.375 20.0323 2.625 19.1613 4.375 19.1613C5.6875 19.1613 6.5625 20.9032 6.5625 20.9032C7.875 22.6452 9.625 22.2097 10.5 21.7742C10.5 20.9032 11.375 20.0323 11.375 20.0323C7.875 19.5968 5.25 18.2903 5.25 13.5C5.25 11.7581 5.6875 10.4516 6.5625 9.58064C6.5625 9.58064 5.6875 7.83871 6.5625 5.66129C6.5625 5.66129 8.75 5.66129 10.5 7.40323C11.8125 6.53226 16.1875 6.53226 17.5 7.40323C19.25 5.66129 21.4375 5.66129 21.4375 5.66129C22.3125 8.70968 21.4375 9.58064 21.4375 9.58064C22.3125 10.4516 22.75 11.7581 22.75 13.5C22.75 18.2903 19.6875 19.5968 16.625 20.0323C17.0625 20.4677 17.5 21.3387 17.5 22.6452V26.129C17.5 26.5645 17.5 27 18.375 27C19.6875 27 28 23.0806 28 13.9355C28 6.09677 21.875 0 14 0Z" fill="white"/>
</svg>
